<?xml version="1.0" encoding="UTF-8"?>
<svg id="Calque_2" xmlns="http://www.w3.org/2000/svg" version="1.1" viewBox="0 0 40 40">
  <!-- Generator: Adobe Illustrator 29.4.0, SVG Export Plug-In . SVG Version: 2.1.0 Build 152)  -->
  <defs>
    <style>
      .st0 {
        fill: #fff;
      }
    </style>
  </defs>
  <g id="Icones">
    <g>
      <path d="M40,20c0,11.04-8.95,20-20,20S0,31.04,0,20,8.96,0,20,0s20,8.95,20,20"/>
      <polygon class="st0" points="21.53 14.86 21.53 18.52 18.99 18.52 18.99 14.86 15.52 14.86 15.52 12.43 18.99 12.43 18.99 8.77 21.53 8.77 21.53 12.43 24.99 12.43 24.99 14.86 21.53 14.86"/>
      <polygon class="st0" points="16 28.98 15.75 29 13.34 24.29 10.95 29 10.72 28.98 7.85 20.98 9.94 20.98 11.21 25.12 13.26 20.92 13.46 20.92 15.51 25.08 16.77 20.98 18.82 20.98 16 28.98"/>
      <polygon class="st0" points="19.68 28.85 19.68 20.98 24.66 20.98 24.66 22.66 21.51 22.66 21.51 24.06 24.39 24.06 24.39 25.65 21.51 25.65 21.51 27.19 24.66 27.19 24.66 28.85 19.68 28.85"/>
      <path class="st0" d="M28.63,28.93c-.69,0-1.58-.06-2.35-.16v-7.68c.57-.09,1.56-.17,2.2-.17,2.28,0,3.44,1.02,3.44,2.11,0,.83-.46,1.39-1.35,1.75,1.07.32,1.58.95,1.58,1.85,0,1.22-1.16,2.31-3.52,2.31M28.88,22.51c-.33,0-.57.03-.83.07v1.64c.21.02.34.03.68.03.88,0,1.32-.32,1.32-.89,0-.47-.4-.86-1.17-.86M28.74,25.48c-.28,0-.5.01-.69.03v1.83c.26.02.4.03.76.03.92,0,1.36-.35,1.36-.95s-.47-.94-1.44-.94"/>
    </g>
  </g>
</svg>